PathFileType	4	(X/Y/Z)	/home/abdul/Desktop/myosuite/custom_workspace/IK/output/S14_12_1.trc
DataRate	CameraRate	NumFrames	NumMarkers	Units	OrigDataRate	OrigDataStartFrame	OrigNumFrames
200.0	200.0	33	3	mm	200.0	1	2040
Frame#	Time	V_Shoulder			V_Elbow			V_Wrist		
		X1	Y1	Z1	X2	Y2	Z2	X3	Y3	Z3

1	0.0	-162.1000919142184	748.0442574655291	306.4647447924222	-218.6958233904746	541.0095609306906	25.986247187851795	-139.17453060071998	379.36342618339734	13.613402424544294
2	0.005	-162.10572200696888	748.067172461209	306.4513530072652	-218.6922568944322	541.0010716082838	25.986749361030554	-139.17684934330782	379.3387503870433	13.622589509354722
3	0.01	-162.11150277328895	748.0904922238474	306.43797892937863	-218.68891867602343	540.9923313509913	25.987602015260375	-139.17896099441506	379.3137786027037	13.630493633341597
4	0.015	-162.11743236512956	748.1141966865965	306.42465111544556	-218.6858333321878	540.9833625936056	25.98882006950808	-139.18084421242338	379.2886059675685	13.63702618266555
5	0.02	-162.1235087301225	748.1382648786557	306.4113987051953	-218.68302584738527	540.9741895150504	25.99041816345801	-139.18247757739783	379.26333311416477	13.64210018819839
6	0.025	-162.12972961289006	748.1626749496262	306.3982513585314	-218.68052153493497	540.9648379952761	25.99241063369878	-139.18383968860445	379.2380660005125	13.645630787649234
7	0.03	-162.13609255636536	748.1874041932509	306.3852391913495	-218.67834597574148	540.9553355608637	25.994811493381725	-139.18490926793064	379.21291570715204	13.647535703799702
8	0.035	-162.14259490309544	748.2124290702714	306.3723927103288	-218.67652495454715	540.945711318928	25.99763441569413	-139.18566526912116	379.1879982001002	13.64773573782604
9	0.04	-162.14923379650114	748.2377252301395	306.3597427469757	-218.67508439385296	540.9359958789498	26.000892721476248	-139.18608699271437	379.1634340588911	13.646155276578726
10	0.045	-162.15600618206886	748.2632675313349	306.34732039119666	-218.67405028565454	540.9262212622069	26.00459937129424	-139.18615420653487	379.1393481689611	13.642722812582127
11	0.05	-162.16290880845352	748.2890300600593	306.33515692466966	-218.67344862114197	540.9164207985212	26.00876696226117	-139.1858472715684	379.115869377751	13.637371475408562
12	0.055	-162.169938228472	748.3149861470866	306.3232837542766	-218.6733053185134	540.9066290100835	26.013407729875656	-139.18514727301408	379.0931301140207	13.630039572973205
13	0.06	-162.17709079996945	748.3411083825722	306.311732345853	-218.67364614905375	540.8968814821742	26.0185335551229	-139.18403615627827	379.0712659699996	13.620671141189213
14	0.065	-162.18436268654386	748.3673686286384	306.30053415849585	-218.6744966616298	540.8872147206496	26.02415597705566	-139.18249686764125	379.05041524613114	13.60921650031681
15	0.07	-162.19174985811495	748.3937380295769	306.28972057966666	-218.67588210575235	540.8776659961235	26.03028621104322	-139.1805134992956	379.0307184583175	13.595632816236309
16	0.075	-162.19924809132718	748.4201870195211	306.27932286130834	-218.67782735335578	540.8682731748322	26.036935172845556	-139.17807143842103	379.0123178077175	13.579884664773903
17	0.08	-162.20685296977732	748.4466853274722	306.2693720571871	-218.68035681944323	540.8590745362361	26.044113508636826	-139.17515751992642	378.99535661331015	13.561944597110923
18	0.085	-162.2145598840612	748.4732019795729	306.25989896165385	-218.68349438174505	540.8501085774751	26.05183163106809	-139.17176018245567	378.9799787075991	13.541793704212981
19	0.09	-162.22236403163447	748.4997052985536	306.2509340500081	-218.68726329953515	540.8414138048607	26.060099761423437	-139.16786962721778	378.96632779600407	13.5194221781254
20	0.095	-162.23026041648484	748.5261629002898	306.24250742063083	-218.69168613174892	540.833028512658	26.068927977886815	-139.16347797916683	378.95454678065767	13.49482986789619
21	0.1	-162.23824384861655	748.5525416874351	306.23464873904305	-218.6967846545436	540.8249905494789	26.078326269899165	-139.1585794500217	378.9447770495091	13.468026827808409
22	0.105	-162.246308943348	748.5788078401143	306.2273871840255	-218.70257977843912	540.8173370726811	26.088304598546657	-139.15317050257957	378.93715773181617	13.439033855530358
23	0.11	-162.2544501204264	748.6049268036835	306.2207513959282	-218.70909146517616	540.8101042912336	26.09887296288189	-139.14725001574095	378.9318249212964	13.407883017725672
24	0.115	-162.26266160296493	748.6308632735785	306.2147694272773	-218.7163386444248	540.8033271975884	26.11004147203997	-139.14081944962894	378.92891086840007	13.374618160606145
25	0.12	-162.2709374162092	748.6565811773074	306.2094686957773	-218.72433913047522	540.7970392891636	26.121820422971588	-139.13388301014948	378.9285431433572	13.339295402859246
26	0.125	-162.27927138614223	748.6820436536437	306.2048759397895	-218.7331095390397	540.7912722801193	26.134220383575283	-139.12644781230392	378.9308437718497	13.301983608339771
27	0.13	-162.28765713793746	748.7072130291149	306.20101717635544	-218.74266520429262	540.786055804174	26.14725228097101	-139.11852404153163	378.9359283453513	13.262764835882013
28	0.135	-162.29608809427123	748.7320507918859	306.19791766181976	-218.7530200962731	540.7814171092847	26.160927494617603	-139.11012511232553	378.9439051083749	13.221734763565397
29	0.14	-162.30455747350746	748.7565175631626	306.19560185509386	-218.76418673877362	540.777380745078	26.17525795393759	-139.10126782333094	378.95487402506285	13.179003084753505
30	0.145	-162.3130582877681	748.7805730662558	306.19409338358895	-218.7761761278352	540.7739682439894	26.19025624007412	-139.09197250810644	378.96892582774706	13.134693873224338
31	0.15	-162.32158334090414	748.8041760934594	306.1934150118356	-218.78899765096907	540.7711977971342	26.20593569136736	-139.08226318069416	378.98614105029793	13.088945914718817
32	0.155	-162.33012522638202	748.8272844709201	306.1935886127949	-218.80265900722216	540.7690839259894	26.22231051210055	-139.07216767511903	379.0065890492661	13.041913002255644
33	0.16	-162.3386763251022	748.8498550216774	306.19463514185344	-218.81716612820378	540.7676371510396	26.239395884030888	-139.0617177779073	379.0303270160063	12.993764192593881
